<svg width="40" height="40" viewBox="0 0 40 40" fill="none" xmlns="http://www.w3.org/2000/svg">
<path d="M34.9997 6.66667H29.833C29.4462 4.78569 28.4227 3.09558 26.9351 1.8812C25.4475 0.666817 23.5867 0.00242421 21.6663 0L18.333 0C16.4127 0.00242421 14.5519 0.666817 13.0643 1.8812C11.5766 3.09558 10.5532 4.78569 10.1663 6.66667H4.99967C4.55765 6.66667 4.13372 6.84226 3.82116 7.15482C3.5086 7.46738 3.33301 7.89131 3.33301 8.33333C3.33301 8.77536 3.5086 9.19928 3.82116 9.51184C4.13372 9.8244 4.55765 10 4.99967 10H6.66634V31.6667C6.66899 33.876 7.54781 35.9941 9.11004 37.5563C10.6723 39.1185 12.7903 39.9974 14.9997 40H24.9997C27.209 39.9974 29.3271 39.1185 30.8893 37.5563C32.4515 35.9941 33.3304 33.876 33.333 31.6667V10H34.9997C35.4417 10 35.8656 9.8244 36.1782 9.51184C36.4907 9.19928 36.6663 8.77536 36.6663 8.33333C36.6663 7.89131 36.4907 7.46738 36.1782 7.15482C35.8656 6.84226 35.4417 6.66667 34.9997 6.66667ZM18.333 3.33333H21.6663C22.7001 3.33459 23.7082 3.65563 24.5524 4.25241C25.3965 4.84918 26.0354 5.69249 26.3813 6.66667H13.618C13.964 5.69249 14.6028 4.84918 15.447 4.25241C16.2911 3.65563 17.2992 3.33459 18.333 3.33333ZM29.9997 31.6667C29.9997 32.9927 29.4729 34.2645 28.5352 35.2022C27.5975 36.1399 26.3258 36.6667 24.9997 36.6667H14.9997C13.6736 36.6667 12.4018 36.1399 11.4641 35.2022C10.5265 34.2645 9.99967 32.9927 9.99967 31.6667V10H29.9997V31.6667Z" fill="#FF7221"/>
<path d="M16.6667 30.0001C17.1087 30.0001 17.5326 29.8245 17.8452 29.5119C18.1577 29.1994 18.3333 28.7754 18.3333 28.3334V18.3334C18.3333 17.8914 18.1577 17.4675 17.8452 17.1549C17.5326 16.8423 17.1087 16.6667 16.6667 16.6667C16.2246 16.6667 15.8007 16.8423 15.4882 17.1549C15.1756 17.4675 15 17.8914 15 18.3334V28.3334C15 28.7754 15.1756 29.1994 15.4882 29.5119C15.8007 29.8245 16.2246 30.0001 16.6667 30.0001Z" fill="#FF7221"/>
<path d="M23.3337 30.0001C23.7757 30.0001 24.1996 29.8245 24.5122 29.5119C24.8247 29.1994 25.0003 28.7754 25.0003 28.3334V18.3334C25.0003 17.8914 24.8247 17.4675 24.5122 17.1549C24.1996 16.8423 23.7757 16.6667 23.3337 16.6667C22.8916 16.6667 22.4677 16.8423 22.1551 17.1549C21.8426 17.4675 21.667 17.8914 21.667 18.3334V28.3334C21.667 28.7754 21.8426 29.1994 22.1551 29.5119C22.4677 29.8245 22.8916 30.0001 23.3337 30.0001Z" fill="#FF7221"/>
</svg>
