<svg width="60" height="61" viewBox="0 0 60 61" fill="none" xmlns="http://www.w3.org/2000/svg">
<path d="M33.871 3.83002V5.84602C33.8729 6.48126 34.0834 7.0983 34.47 7.60234C34.8566 8.10639 35.398 8.46955 36.011 8.63602C41.1894 10.0883 45.6669 13.3663 48.6157 17.864C51.5646 22.3617 52.7853 27.7749 52.0523 33.1029C51.3194 38.4309 48.6822 43.3133 44.6284 46.8476C40.5745 50.3819 35.3782 52.3291 30 52.3291C24.6219 52.3291 19.4256 50.3819 15.3717 46.8476C11.3179 43.3133 8.68074 38.4309 7.94775 33.1029C7.21476 27.7749 8.43553 22.3617 11.3844 17.864C14.3332 13.3663 18.8107 10.0883 23.989 8.63602C24.6023 8.4695 25.1438 8.10619 25.5304 7.60195C25.9171 7.0977 26.1274 6.48043 26.129 5.84502V3.83102C26.1287 3.38747 26.0269 2.94988 25.8313 2.55177C25.6357 2.15367 25.3516 1.80561 25.0008 1.53427C24.6499 1.26294 24.2416 1.07552 23.8071 0.986382C23.3726 0.897243 22.9234 0.90875 22.494 1.02002C15.4235 2.84667 9.26209 7.18959 5.16487 13.2345C1.06764 19.2795 -0.683987 26.6113 0.238379 33.8555C1.16074 41.0997 4.69377 47.7587 10.1751 52.584C15.6563 57.4094 22.7095 60.0698 30.0121 60.0663C37.3148 60.0629 44.3654 57.396 49.8422 52.5655C55.319 47.735 58.8458 41.0727 59.7614 33.8277C60.677 26.5827 58.9185 19.2525 54.8156 13.2113C50.7128 7.17022 44.5473 2.83306 37.475 1.01302C37.0472 0.905943 36.6005 0.897881 36.169 0.989446C35.7376 1.08101 35.3326 1.26979 34.9851 1.54142C34.6376 1.81305 34.3566 2.16037 34.1636 2.55696C33.9705 2.95354 33.8705 3.38894 33.871 3.83002Z" fill="#FF0011"/>
</svg>
